# xmcd
#
# Track frame offsets:
#	150
#	44521
#	77766
#	113092
#	135791
#	160447
#	203268
#	220628
#	240615
#	267918
#
# Disc length: 3862 seconds
#
# Revision: 1
# Processed by: cddbd v1.5.2PL0 Copyright (c) Steve Scherf et al.
# Submitted via: audiograbber 1.83.01
#
DISCID=7b0f140a
DTITLE=Grateful Dead - 80-10-04 Warfield Theatre, San Francisco CA
DYEAR=1900
DGENRE=
TTITLE0=Estimated Prophet
TTITLE1=Eyes Of The World
TTITLE2=Drums
TTITLE3=Space
TTITLE4=Not Fade Away
TTITLE5=Wharf Rat
TTITLE6=I Need A Miracle
TTITLE7=Johnny B Goode
TTITLE8=Uncle John's Band
TTITLE9=One More Saturday Night
EXTD=
EXTT0=
EXTT1=
EXTT2=
EXTT3=
EXTT4=
EXTT5=
EXTT6=
EXTT7=
EXTT8=
EXTT9=
PLAYORDER=
